<svg width="50" height="49" viewBox="0 0 50 49" fill="none" xmlns="http://www.w3.org/2000/svg">
<g clip-path="url(#clip0)">
<path d="M47.8328 47.614C44.969 47.614 44.9691 47.4638 42.1053 47.4638C39.2415 47.4638 39.2415 48.1397 36.3777 48.1397C33.5139 48.1397 33.5139 48.1397 30.6502 48.1397C27.7864 48.1397 27.7864 47.9895 24.9226 47.9895C22.0588 47.9895 22.0588 47.8393 19.1951 47.8393C16.3313 47.8393 16.3313 47.6891 13.4675 47.6891C10.6037 47.6891 10.6037 47.5389 7.73995 47.5389C4.87617 47.5389 4.87617 48.2148 2.0124 48.2148C0.928806 48.2148 -0.154785 46.9381 -0.154785 45.8867C-0.154785 42.7325 0.46441 42.7325 0.46441 39.5783C0.46441 36.424 0.38701 36.424 0.38701 33.2698C0.38701 32.8192 0.387011 32.7441 0.774007 32.7441C1.161 32.7441 1.0836 32.8943 1.0836 33.2698C1.0836 36.0485 1.7028 36.0485 1.7028 38.7522C1.7028 41.5309 1.6254 41.5309 1.6254 44.2345C1.6254 45.361 2.47679 46.2622 3.63778 46.2622C6.26936 46.2622 6.26936 46.5626 8.90094 46.5626C11.5325 46.5626 11.5325 46.5626 14.1641 46.5626C16.7957 46.5626 16.7957 46.2622 19.4273 46.2622C22.0588 46.2622 22.0588 46.2622 24.6904 46.2622C27.322 46.2622 27.322 46.112 29.9536 46.112C32.5852 46.112 32.5852 45.8867 35.2167 45.8867C37.8483 45.8867 37.8483 46.112 40.4799 46.112C43.1115 46.112 43.1115 46.4875 45.743 46.4875C46.904 46.4875 48.065 45.4361 48.065 44.3096C48.065 41.5309 47.678 41.5309 47.678 38.8273C47.678 36.1236 47.9102 36.0485 47.9102 33.3449C47.9102 32.8943 48.2198 32.8192 48.6068 32.8192C48.9938 32.8192 48.9938 32.9694 48.9938 33.3449C48.9938 36.4991 49.1486 36.4991 49.1486 39.6534C49.1486 42.8076 49.613 42.8076 49.613 45.9618C50 46.9381 48.9164 47.614 47.8328 47.614Z" fill="#C37530"/>
<path d="M47.8328 47.614C44.969 47.614 44.9691 47.4638 42.1053 47.4638C39.2415 47.4638 39.2415 48.1397 36.3777 48.1397C33.5139 48.1397 33.5139 48.1397 30.6502 48.1397C27.7864 48.1397 27.7864 47.9895 24.9226 47.9895C22.0588 47.9895 22.0588 47.8393 19.1951 47.8393C16.3313 47.8393 16.3313 47.6891 13.4675 47.6891C10.6037 47.6891 10.6037 47.5389 7.73995 47.5389C4.87617 47.5389 4.87617 48.2148 2.0124 48.2148C0.928806 48.2148 -0.154785 46.9381 -0.154785 45.8867C-0.154785 42.7325 0.46441 42.7325 0.46441 39.5783C0.46441 36.424 0.38701 36.424 0.38701 33.2698C0.38701 32.8192 0.387011 32.7441 0.774007 32.7441C1.161 32.7441 1.0836 32.8943 1.0836 33.2698C1.0836 36.0485 1.7028 36.0485 1.7028 38.7522C1.7028 41.5309 1.6254 41.5309 1.6254 44.2345C1.6254 45.361 2.47679 46.2622 3.63778 46.2622C6.26936 46.2622 6.26936 46.5626 8.90094 46.5626C11.5325 46.5626 11.5325 46.5626 14.1641 46.5626C16.7957 46.5626 16.7957 46.2622 19.4273 46.2622C22.0588 46.2622 22.0588 46.2622 24.6904 46.2622C27.322 46.2622 27.322 46.112 29.9536 46.112C32.5852 46.112 32.5852 45.8867 35.2167 45.8867C37.8483 45.8867 37.8483 46.112 40.4799 46.112C43.1115 46.112 43.1115 46.4875 45.743 46.4875C46.904 46.4875 48.065 45.4361 48.065 44.3096C48.065 41.5309 47.678 41.5309 47.678 38.8273C47.678 36.1236 47.9102 36.0485 47.9102 33.3449C47.9102 32.8943 48.2198 32.8192 48.6068 32.8192C48.9938 32.8192 48.9938 32.9694 48.9938 33.3449C48.9938 36.4991 49.1486 36.4991 49.1486 39.6534C49.1486 42.8076 49.613 42.8076 49.613 45.9618C50 46.9381 48.9164 47.614 47.8328 47.614Z" fill="#C37530"/>
<path d="M34.3652 27.2613C34.0556 26.9609 33.4364 26.9609 33.1268 27.2613C30.2631 30.0401 30.2631 30.1152 27.3993 32.8939C26.7801 33.4947 25.8513 33.0441 25.8513 32.218C25.8513 29.5895 25.3869 29.5895 25.3869 26.8858C25.3869 24.2573 25.7739 24.2573 25.7739 21.5537C25.7739 18.9252 26.1609 18.9252 26.1609 16.2216C26.1609 13.5931 25.8513 13.5931 25.8513 10.8895C25.8513 8.26101 26.0061 8.26101 26.0061 5.55741C26.0061 2.85381 26.0835 2.92891 26.0835 0.2253C26.0835 0 25.4643 0 24.9999 0C24.5355 0 24.1485 0 24.1485 0.375501C24.1485 3.00401 23.8389 3.00401 23.8389 5.70761C23.8389 8.33611 24.3033 8.33611 24.3033 11.0397C24.3033 13.6682 24.0711 13.6682 24.0711 16.3718C24.0711 19.0003 24.4581 19.0003 24.4581 21.7039C24.4581 24.3324 24.5355 24.3324 24.5355 27.036C24.5355 29.6646 24.1485 29.6646 24.1485 32.3682C24.1485 33.1943 22.9101 33.9453 22.2909 33.3445C19.4272 30.5658 19.5046 30.4156 16.6408 27.6368C16.3312 27.3364 15.7894 26.8858 15.4798 27.1862C15.1702 27.4866 15.325 28.3878 15.6346 28.6882C17.8018 30.7911 17.7244 30.9413 19.8916 33.0441C22.0587 35.1469 22.1361 35.1469 24.3033 37.2497C24.3807 37.3248 24.5355 37.5501 24.6129 37.5501C24.6903 37.6252 24.9999 37.2497 25.0773 37.2497C25.1547 37.2497 25.2321 37.1746 25.3869 37.1746C25.4643 37.0995 25.4643 37.0244 25.5417 36.9493C27.7089 34.8465 27.5541 34.6212 29.7213 32.5184C31.8885 30.4156 32.1207 30.5658 34.2878 28.4629C34.52 28.0124 34.6748 27.5617 34.3652 27.2613Z" fill="#C37530"/>
<path d="M34.3652 27.2613C34.0556 26.9609 33.4364 26.9609 33.1268 27.2613C30.2631 30.0401 30.2631 30.1152 27.3993 32.8939C26.7801 33.4947 25.8513 33.0441 25.8513 32.218C25.8513 29.5895 25.3869 29.5895 25.3869 26.8858C25.3869 24.2573 25.7739 24.2573 25.7739 21.5537C25.7739 18.9252 26.1609 18.9252 26.1609 16.2216C26.1609 13.5931 25.8513 13.5931 25.8513 10.8895C25.8513 8.26101 26.0061 8.26101 26.0061 5.55741C26.0061 2.85381 26.0835 2.92891 26.0835 0.2253C26.0835 0 25.4643 0 24.9999 0C24.5355 0 24.1485 0 24.1485 0.375501C24.1485 3.00401 23.8389 3.00401 23.8389 5.70761C23.8389 8.33611 24.3033 8.33611 24.3033 11.0397C24.3033 13.6682 24.0711 13.6682 24.0711 16.3718C24.0711 19.0003 24.4581 19.0003 24.4581 21.7039C24.4581 24.3324 24.5355 24.3324 24.5355 27.036C24.5355 29.6646 24.1485 29.6646 24.1485 32.3682C24.1485 33.1943 22.9101 33.9453 22.2909 33.3445C19.4272 30.5658 19.5046 30.4156 16.6408 27.6368C16.3312 27.3364 15.7894 26.8858 15.4798 27.1862C15.1702 27.4866 15.325 28.3878 15.6346 28.6882C17.8018 30.7911 17.7244 30.9413 19.8916 33.0441C22.0587 35.1469 22.1361 35.1469 24.3033 37.2497C24.3807 37.3248 24.5355 37.5501 24.6129 37.5501C24.6903 37.6252 24.9999 37.2497 25.0773 37.2497C25.1547 37.2497 25.2321 37.1746 25.3869 37.1746C25.4643 37.0995 25.4643 37.0244 25.5417 36.9493C27.7089 34.8465 27.5541 34.6212 29.7213 32.5184C31.8885 30.4156 32.1207 30.5658 34.2878 28.4629C34.52 28.0124 34.6748 27.5617 34.3652 27.2613Z" fill="#C37530"/>
<path d="M47.8328 47.614C44.969 47.614 44.9691 47.4638 42.1053 47.4638C39.2415 47.4638 39.2415 48.1397 36.3777 48.1397C33.5139 48.1397 33.5139 48.1397 30.6502 48.1397C27.7864 48.1397 27.7864 47.9895 24.9226 47.9895C22.0588 47.9895 22.0588 47.8393 19.1951 47.8393C16.3313 47.8393 16.3313 47.6891 13.4675 47.6891C10.6037 47.6891 10.6037 47.5389 7.73995 47.5389C4.87617 47.5389 4.87617 48.2148 2.0124 48.2148C0.928806 48.2148 -0.154785 46.9381 -0.154785 45.8867C-0.154785 42.7325 0.46441 42.7325 0.46441 39.5783C0.46441 36.424 0.38701 36.424 0.38701 33.2698C0.38701 32.8192 0.387011 32.7441 0.774007 32.7441C1.161 32.7441 1.0836 32.8943 1.0836 33.2698C1.0836 36.0485 1.7028 36.0485 1.7028 38.7522C1.7028 41.5309 1.6254 41.5309 1.6254 44.2345C1.6254 45.361 2.47679 46.2622 3.63778 46.2622C6.26936 46.2622 6.26936 46.5626 8.90094 46.5626C11.5325 46.5626 11.5325 46.5626 14.1641 46.5626C16.7957 46.5626 16.7957 46.2622 19.4273 46.2622C22.0588 46.2622 22.0588 46.2622 24.6904 46.2622C27.322 46.2622 27.322 46.112 29.9536 46.112C32.5852 46.112 32.5852 45.8867 35.2167 45.8867C37.8483 45.8867 37.8483 46.112 40.4799 46.112C43.1115 46.112 43.1115 46.4875 45.743 46.4875C46.904 46.4875 48.065 45.4361 48.065 44.3096C48.065 41.5309 47.678 41.5309 47.678 38.8273C47.678 36.1236 47.9102 36.0485 47.9102 33.3449C47.9102 32.8943 48.2198 32.8192 48.6068 32.8192C48.9938 32.8192 48.9938 32.9694 48.9938 33.3449C48.9938 36.4991 49.1486 36.4991 49.1486 39.6534C49.1486 42.8076 49.613 42.8076 49.613 45.9618C50 46.9381 48.9164 47.614 47.8328 47.614Z" fill="#C37530"/>
<path d="M34.3652 27.2613C34.0556 26.9609 33.4364 26.9609 33.1268 27.2613C30.2631 30.0401 30.2631 30.1152 27.3993 32.8939C26.7801 33.4947 25.8513 33.0441 25.8513 32.218C25.8513 29.5895 25.3869 29.5895 25.3869 26.8858C25.3869 24.2573 25.7739 24.2573 25.7739 21.5537C25.7739 18.9252 26.1609 18.9252 26.1609 16.2216C26.1609 13.5931 25.8513 13.5931 25.8513 10.8895C25.8513 8.26101 26.0061 8.26101 26.0061 5.55741C26.0061 2.85381 26.0835 2.92891 26.0835 0.2253C26.0835 0 25.4643 0 24.9999 0C24.5355 0 24.1485 0 24.1485 0.375501C24.1485 3.00401 23.8389 3.00401 23.8389 5.70761C23.8389 8.33611 24.3033 8.33611 24.3033 11.0397C24.3033 13.6682 24.0711 13.6682 24.0711 16.3718C24.0711 19.0003 24.4581 19.0003 24.4581 21.7039C24.4581 24.3324 24.5355 24.3324 24.5355 27.036C24.5355 29.6646 24.1485 29.6646 24.1485 32.3682C24.1485 33.1943 22.9101 33.9453 22.2909 33.3445C19.4272 30.5658 19.5046 30.4156 16.6408 27.6368C16.3312 27.3364 15.7894 26.8858 15.4798 27.1862C15.1702 27.4866 15.325 28.3878 15.6346 28.6882C17.8018 30.7911 17.7244 30.9413 19.8916 33.0441C22.0587 35.1469 22.1361 35.1469 24.3033 37.2497C24.3807 37.3248 24.5355 37.5501 24.6129 37.5501C24.6903 37.6252 24.9999 37.2497 25.0773 37.2497C25.1547 37.2497 25.2321 37.1746 25.3869 37.1746C25.4643 37.0995 25.4643 37.0244 25.5417 36.9493C27.7089 34.8465 27.5541 34.6212 29.7213 32.5184C31.8885 30.4156 32.1207 30.5658 34.2878 28.4629C34.52 28.0124 34.6748 27.5617 34.3652 27.2613Z" fill="#C37530"/>
</g>
<defs>
<clipPath id="clip0">
<rect width="50" height="48.2143" fill="white"/>
</clipPath>
</defs>
</svg>
