<svg width="19" height="18" viewBox="0 0 19 18" fill="none" xmlns="http://www.w3.org/2000/svg">
<path d="M17.4481 1.99049L17.1295 1.4126C17.002 1.15577 16.7896 0.963139 16.5134 0.856124L15.7487 0.535077C15.2177 0.299643 14.6442 0.192628 14.0494 0.171225L12.9873 0.149822H11.033H9.16377C9.14252 0.149822 9.10004 0.149822 9.0788 0.149822L7.252 0C7.20952 0 7.14579 0 7.10331 0L5.27651 0.0856124C5.25527 0.0856124 5.23403 0.0856124 5.21278 0.0856124L3.81082 0.0642093C3.47095 0.0642093 3.13108 0.128419 2.81246 0.256837L2.21768 0.492271C1.55919 0.749108 1.02814 1.28419 0.751997 1.92628L0.539579 2.46136C0.390886 2.82521 0.32716 3.23187 0.348402 3.61712L0.433369 4.96552L0.454611 6.16409C0.454611 6.67777 0.433368 7.19144 0.390885 7.68371C0.305917 8.47563 0.305918 9.28894 0.369643 10.0809V10.1023C0.412127 10.5945 0.412128 11.0868 0.412128 11.5577L0.369643 12.7776V14.3401C0.369643 14.5969 0.412128 14.8751 0.518337 15.1106L0.879448 16.0737C1.09187 16.5874 1.49546 16.9727 2.00527 17.1653L3.02487 17.5505C3.21605 17.6147 3.38599 17.6576 3.5984 17.679L5.21278 17.786C5.23403 17.786 5.27651 17.786 5.29775 17.786H7.20952L7.99547 17.7646C8.65396 17.7432 9.20625 17.1867 9.20625 16.5232V16.0737C9.20625 16.0523 9.20625 16.0309 9.20625 16.0095L9.12128 14.4471C9.12128 14.4043 9.12128 14.3615 9.12128 14.3187L9.18501 12.7134L9.20625 11.0012L7.10331 10.9584L7.06083 9.56718L7.08207 8.15458L9.20625 8.13318L9.14252 7.29845C9.12128 7.08442 9.14252 6.84899 9.20625 6.63496L9.48239 5.5648C9.54612 5.30797 9.67357 5.05113 9.8435 4.8371L10.3533 4.21641C10.6082 3.89536 10.9481 3.65993 11.3517 3.55291L12.2651 3.31748C12.4138 3.27467 12.5837 3.25327 12.7536 3.25327L14.8566 3.23187L14.7716 4.62307C14.7716 4.66587 14.7716 4.68728 14.7716 4.73008L14.8141 6.03567L13.221 6.07848C12.7749 6.09988 12.3925 6.33532 12.1801 6.72057C12.1164 6.84899 12.0527 6.99881 12.0314 7.14863L11.8827 8.19738L13.4121 8.17598L14.8566 8.11177L14.8353 9.56718L14.8141 10.9584H13.4334L11.9464 11.0012L11.904 12.6278C11.904 12.6706 11.904 12.7134 11.904 12.7562L12.0314 14.2545C12.0314 14.3187 12.0314 14.4043 12.0314 14.4685L11.904 15.9239C11.904 15.9881 11.904 16.0737 11.904 16.1379L11.9252 16.5018C11.9677 17.1653 12.52 17.6576 13.1785 17.6576H13.5396L14.6654 17.6147C14.9628 17.6147 15.2389 17.5505 15.5151 17.4435L15.9399 17.2937C16.7259 17.0155 17.3419 16.3948 17.618 15.6029L17.7667 15.1748C17.8729 14.8966 17.9366 14.5969 17.9366 14.2973L18.0004 12.8205C18.0004 12.799 18.0004 12.7776 18.0004 12.7348L17.9579 10.8086L17.9366 9.90963C17.9154 9.20333 17.9579 8.49703 18.0429 7.79073C18.1066 7.19144 18.1491 6.59215 18.1491 5.97146V4.92271V4.1308C18.0004 3.40309 17.8304 2.65398 17.4481 1.99049Z" fill="#C37530"/>
</svg>
