<svg width="29" height="29" viewBox="0 0 29 29" fill="none" xmlns="http://www.w3.org/2000/svg">
<rect y="1" width="29" height="27" fill="#C37530"/>
<path d="M18.5897 29H18.4038L15.2436 28.8141C14.8718 28.8141 14.5 28.8141 14.1282 28.8141H13.5705C12.8269 28.8141 12.0833 28.8141 11.3397 28.8141C10.5962 28.6282 9.85256 28.6282 9.10897 28.8141H8.55128C8.17949 28.8141 7.80769 28.8141 7.4359 28.8141H4.08974C3.71795 28.8141 3.16026 28.8141 2.78846 28.8141L1.30128 28.6282C0.929487 28.6282 0.557692 28.2564 0.557692 27.8846V26.0256C0.557692 25.8397 0.557692 25.6538 0.557692 25.2821V24.5385C0.557692 23.609 0.557692 22.8654 0.557692 21.9359C0.557692 21.1923 0.74359 20.6346 0.557692 19.891L0 17.4744C0 17.1026 0 16.5449 0 16.1731L0.185897 12.8269C0.185897 12.4551 0.185897 12.2692 0.185897 11.8974V10.5962C0.185897 10.2244 0.185897 9.85256 0.185897 9.66667V6.13462C0.185897 5.76282 0.185897 5.39103 0.185897 5.20513V4.27564C0.185897 3.71795 0.185897 2.97436 0.185897 2.41667V1.11538C0.185897 0.74359 0.557692 0.371795 0.929487 0.371795H3.16026H5.01923C5.20513 0.371795 5.57692 0.371795 5.76282 0.371795H7.0641C7.4359 0.371795 7.80769 0.371795 8.17949 0.371795L11.7115 0.557692C12.0833 0.557692 12.4551 0.557692 12.8269 0.557692H14.1282C14.3141 0 14.6859 0 14.8718 0H18.5897C18.7756 0 18.9615 0 19.3333 0H20.8205C21.0064 0 21.3782 0 21.5641 0H23.0513C23.2372 0 23.609 0 23.7949 0H25.2821C25.6538 0 25.8397 0 26.2115 0H28.0705C28.4423 0 28.8141 0.371795 28.8141 0.74359V2.23077C28.8141 2.78846 28.8141 3.53205 28.8141 4.08974C28.6282 5.01923 28.6282 5.76282 28.8141 6.50641C28.8141 7.25 28.8141 7.80769 28.8141 8.55128L28.6282 11.7115C28.6282 12.0833 28.6282 12.4551 28.6282 12.8269V14.1282C28.6282 14.5 28.6282 14.6859 28.6282 15.0577V16.5449C28.6282 16.7308 28.6282 17.1026 28.6282 17.2885V18.4038C28.6282 18.9615 28.6282 19.5192 28.6282 19.891V20.6346C28.6282 21.0064 28.6282 21.5641 28.6282 21.9359L28.4423 28.0705C28.4423 28.4423 28.0705 28.8141 27.6987 28.8141L26.0256 29C25.6538 29 25.2821 29 25.0962 29H23.7949C23.4231 29 23.0513 29 22.6795 29H22.1218C21.3782 29 20.6346 29 19.891 29H19.7051C19.5192 29 18.9615 29 18.5897 29ZM14.6859 27.3269C14.8718 27.3269 15.0577 27.3269 15.2436 27.3269L18.4038 27.5128C18.9615 27.5128 19.3333 27.5128 19.891 27.5128H20.0769C21.0064 27.3269 21.9359 27.3269 22.6795 27.5128H23.2372C23.609 27.5128 23.9808 27.5128 24.1667 27.5128H25.4679C25.8397 27.5128 26.0256 27.5128 26.3974 27.5128H27.3269L27.5128 22.1218C27.5128 21.75 27.5128 21.3782 27.5128 21.0064V20.2628C27.5128 19.7051 27.5128 18.9615 27.5128 18.4038V17.2885C27.5128 17.1026 27.5128 16.9167 27.5128 16.7308V15.2436C27.5128 15.0577 27.5128 14.6859 27.5128 14.5V13.1987C27.5128 12.8269 27.5128 12.4551 27.5128 12.0833L27.6987 8.92308C27.6987 8.36539 27.6987 7.80769 27.6987 7.25C27.5128 6.13462 27.6987 5.39103 27.6987 4.46154V4.27564C27.6987 3.71795 27.6987 3.16026 27.6987 2.78846V2.04487H26.5833C26.3974 2.04487 26.0256 2.04487 25.8397 2.04487H24.3526C23.9808 2.04487 23.7949 2.04487 23.4231 2.04487H21.9359C21.75 2.04487 21.3782 2.04487 21.1923 2.04487H19.7051C19.5192 2.04487 19.1474 2.04487 18.9615 2.04487H15.2436C15.0577 2.04487 14.6859 2.04487 14.5 2.04487H13.1987C12.4551 1.85897 12.0833 1.85897 11.7115 1.85897L8.17949 1.67308C7.80769 1.67308 7.6218 1.67308 7.25 1.67308H5.94872C5.57692 1.85897 5.39103 1.85897 5.01923 1.85897H3.16026H1.67308V2.41667C1.67308 2.97436 1.67308 3.53205 1.67308 4.08974V5.01923C1.85897 5.20513 1.85897 5.57692 1.85897 5.94872V9.48077C1.85897 9.85256 1.85897 10.0385 1.85897 10.4103V11.7115C1.85897 12.0833 1.85897 12.4551 1.85897 12.8269L1.67308 16.1731C1.67308 16.5449 1.67308 16.9167 1.67308 17.2885L1.85897 20.2628C1.85897 21.0064 1.85897 21.75 1.85897 22.4936C1.85897 23.2372 1.67308 23.9808 1.85897 24.7244V25.4679C1.85897 25.6538 1.85897 26.0256 1.85897 26.2115V27.3269H2.60256C2.97436 27.3269 3.34615 27.3269 3.71795 27.3269H7.0641C7.4359 27.3269 7.6218 27.3269 7.99359 27.3269H8.55128C9.48077 27.3269 10.2244 27.3269 11.1538 27.3269C11.8974 27.3269 12.4551 27.5128 13.1987 27.3269H13.7564C14.1282 27.3269 14.3141 27.3269 14.6859 27.3269Z" fill="#C37530"/>
<path d="M15.2448 9C15.6166 9 15.8025 9.1859 15.8025 9.55769V9.74359V10.3013V10.6731V12.3462V13.8333V15.8782V16.8077V16.9936V17.7372V18.109V18.8526V19.2244C15.8025 19.2244 15.8025 19.4103 15.8025 19.782C15.8025 19.782 15.9884 19.9679 15.9884 20.3397C16.1743 20.7115 16.1743 20.8974 16.1743 20.8974C16.1743 21.0833 16.1743 21.2692 15.9884 21.4551C15.8025 21.641 15.6166 21.641 15.6166 21.641H14.873C14.5012 21.641 14.3153 21.641 13.9435 21.641C13.5717 21.641 13.3858 21.4551 13.3858 21.0833C13.3858 20.8974 13.3858 20.7115 13.5717 20.5256C13.5717 20.5256 13.7576 20.3397 13.7576 19.9679C13.7576 19.9679 13.7576 19.782 13.9435 19.782C13.9435 19.5962 13.9435 19.5962 13.9435 19.5962V18.109V17.5513C13.9435 17.5513 13.9435 17.3654 13.9435 17.1795V16.9936C13.9435 16.8077 13.9435 16.8077 13.9435 16.8077V16.4359C13.9435 16.25 13.9435 16.0641 13.9435 15.8782V15.6923C13.9435 15.5064 13.9435 15.3205 13.9435 15.3205C13.9435 15.3205 13.9435 15.3205 13.9435 15.1346V14.9487C13.9435 14.9487 13.9435 14.391 13.9435 13.2756V12.9038C13.9435 11.9744 13.7576 11.4167 13.7576 11.2308C13.7576 11.2308 13.7576 11.2308 13.7576 11.0449C13.7576 10.859 13.7576 11.0449 13.7576 10.859C13.7576 10.859 13.5717 10.859 13.5717 10.6731H13.014C13.014 10.6731 12.8281 10.4872 12.8281 10.3013C12.8281 10.1154 13.014 9.74359 13.7576 9.55769H13.9435C14.1294 9.55769 14.1294 9.37179 14.3153 9.37179C14.6871 9.1859 15.0589 9 15.2448 9Z" fill="white"/>
</svg>
