<svg width="42" height="14" viewBox="0 0 42 14" fill="none" xmlns="http://www.w3.org/2000/svg">
<path d="M7.79674 12.5223C8.42864 11.6949 8.54566 10.7728 8.1712 9.70898C8.05418 9.2598 7.79674 8.88153 7.42228 8.5742C7.04782 8.26686 6.60315 8.17229 6.11166 8.2905C5.66699 8.40871 5.33934 8.6924 5.12871 9.09431C4.91808 9.49621 4.87127 9.89811 4.98829 10.2764C5.1053 10.6546 5.36275 10.8674 5.73721 10.9383C6.11167 11.0093 6.39251 10.8674 6.57974 10.5601C6.69676 10.2527 6.69676 9.92175 6.57974 9.61442C6.46272 9.30708 6.20528 9.16523 5.83083 9.23615C6.13507 8.92882 6.50953 8.88153 6.9542 9.14159C7.39887 9.40164 7.67972 9.70898 7.79674 10.0872C7.98397 10.5837 7.93716 11.0565 7.65631 11.5057C7.37547 11.9549 7.07122 12.3095 6.76697 12.6405C6.13507 13.2552 5.31594 13.4443 4.26277 13.1606C3.2096 12.8769 2.46068 12.4277 2.01601 11.7894C1.71176 11.3402 1.43092 10.962 1.17348 10.6074C0.916034 10.2527 0.775611 9.80355 0.705398 9.23615C0.588382 8.78697 0.564975 8.31414 0.658588 7.77039C0.752205 7.22664 0.892624 6.77746 1.07985 6.3992C1.3841 5.8318 1.66495 5.31169 1.92239 4.83887C2.17983 4.36604 2.50748 3.86957 2.95216 3.37311C3.32662 2.99484 3.67768 2.66387 3.98193 2.38017C4.28618 2.09647 4.70744 1.83642 5.19892 1.57636C6.3223 0.938049 7.5393 0.630712 8.8265 0.630712C9.3882 0.630712 9.92648 0.677994 10.4648 0.77256C11.0031 0.867125 11.5413 0.985332 12.103 1.10354C12.6647 1.22174 13.1796 1.41088 13.6477 1.67093C14.1158 1.93098 14.5838 2.19104 15.0987 2.52202C15.3562 2.64022 15.5434 2.80571 15.7072 2.99484C15.871 3.18398 16.0583 3.37311 16.3157 3.56224C16.5029 3.68044 16.7136 3.82229 16.9242 3.9405C17.1348 4.0587 17.3221 4.24784 17.4391 4.50789C18.071 5.38262 18.6561 6.30463 19.2646 7.27392C19.8497 8.24322 20.2007 9.30708 20.3412 10.4182L20.7156 12.0258L20.7156 12.8769C20.4582 12.9951 20.3178 13.1606 20.2475 13.3497C20.0603 13.6571 20.1539 13.9408 20.5284 14.2008C20.5986 14.319 20.7156 14.39 20.9028 14.39C21.0901 14.39 21.1603 14.39 21.0901 14.39C21.4645 14.39 21.6752 14.2481 21.7454 13.9644C21.8156 13.6807 21.7688 13.3734 21.6518 13.0661C21.4645 12.1204 21.4879 11.222 21.7454 10.3473C22.0496 9.28344 22.4241 8.24322 22.8688 7.25028C23.3134 6.23371 23.9219 5.33534 24.7411 4.53153C25.4198 3.77501 26.1453 3.16033 26.941 2.64023C27.7133 2.14376 28.5325 1.69457 29.4218 1.31631C30.4048 0.867126 31.5048 0.654354 32.6749 0.654354C33.8451 0.654354 34.9451 0.843485 35.9281 1.22175C37.8004 1.97827 39.2748 3.30218 40.3982 5.16985C40.6556 5.61903 40.8897 6.09186 41.1003 6.63561C41.3109 7.17936 41.428 7.72311 41.428 8.2905C41.4982 8.73969 41.428 9.2598 41.2407 9.89811C41.0535 10.5364 40.8429 10.9856 40.5854 11.3166C40.0237 12.0022 39.2748 12.5696 38.3387 13.0188C37.4025 13.468 36.5132 13.4207 35.6238 12.9242C35.2494 12.7351 34.9451 12.4277 34.7345 11.9785C34.5238 11.5294 34.4068 11.1038 34.4068 10.6546C34.4068 10.2054 34.5707 9.75627 34.9217 9.28344C35.2728 8.81061 35.6706 8.83425 36.1855 9.33072C35.8813 9.21251 35.6472 9.28344 35.4834 9.56713C35.3196 9.85083 35.3196 10.1109 35.4366 10.3709C35.5536 10.8201 35.8345 10.9856 36.2323 10.891C36.6302 10.7965 36.8876 10.5837 37.028 10.2764C37.1451 9.96904 37.1451 9.59078 36.9812 9.14159C36.8174 8.69241 36.5834 8.40871 36.2791 8.2905C35.7876 8.03045 35.3196 8.12501 34.8749 8.5742C34.4302 9.02338 34.1026 9.42529 33.8451 9.80355C33.4707 10.2527 33.3303 10.7019 33.4239 11.222C33.5175 11.7185 33.7281 12.1677 34.0792 12.5459C34.4302 12.9242 34.8515 13.2315 35.343 13.4916C35.8345 13.7516 36.3025 13.8699 36.7472 13.8699C37.7302 13.9881 38.6663 13.7989 39.5323 13.2552C40.3982 12.7114 41.0301 11.9785 41.4046 11.0329C41.896 9.96904 42.0833 8.85789 41.9662 7.74675C41.8492 6.61197 41.4982 5.57175 40.9365 4.64974C40.6322 4.15327 40.3046 3.68044 39.9535 3.27854C39.6025 2.87664 39.228 2.47474 38.7833 2.09647C38.5961 1.97827 38.4089 1.81278 38.2216 1.62365C38.0344 1.43452 37.8238 1.31631 37.5663 1.24539C37.2621 1.12718 36.9344 0.985333 36.5834 0.867126C36.2323 0.748919 35.9047 0.607071 35.6004 0.488865C34.36 0.110604 33.0728 -0.0548858 31.7388 0.0160381C30.4048 0.0869621 29.1644 0.465223 28.0644 1.15082L26.4729 2.09647C25.9815 2.35653 25.607 2.64023 25.3496 2.94756C24.8581 3.39675 24.4368 3.82229 24.0858 4.27148C23.7347 4.72066 23.3836 5.16985 23.0092 5.68996C22.5177 6.37556 22.0964 7.13208 21.7922 7.95952C21.4879 8.76333 21.2305 9.59077 21.0433 10.4182C20.5518 8.2905 19.6156 6.35191 18.2582 4.6261C16.8774 2.90028 15.2157 1.62365 13.2264 0.819842C11.2371 -0.00760407 9.17757 -0.149452 7.02442 0.347016C4.87127 0.843483 3.11599 1.95463 1.75857 3.63316C1.07986 4.43696 0.588375 5.4299 0.260723 6.61197C-0.043526 7.77039 -0.0903324 8.88153 0.16711 9.94539C0.471359 11.1275 1.10326 12.1204 2.03941 12.9242C2.97556 13.7044 4.05213 14.0353 5.29253 13.9171C6.3457 13.7753 7.16484 13.3497 7.79674 12.5223Z" fill="#C37530"/>
</svg>
