<svg width="18" height="18" viewBox="0 0 18 18" fill="none" xmlns="http://www.w3.org/2000/svg">
<path d="M13.6368 3.146C13.042 3.146 12.5322 3.53125 12.5322 4.13054C12.5322 4.72982 13.042 5.2649 13.6368 5.2649C14.2316 5.2649 14.5927 4.72982 14.5927 4.13054C14.5927 3.53125 14.2316 3.146 13.6368 3.146Z" fill="#C37530"/>
<path d="M16.2288 12.8205C16.2288 13.4625 16.1863 14.1474 15.8889 14.6611C15.5703 15.1962 14.9967 15.56 14.4657 15.8597C13.9559 16.1593 13.3611 16.4804 12.7239 16.4804C11.768 16.4804 11.768 16.4376 10.8121 16.4376C9.85621 16.4376 9.85621 16.3734 8.90033 16.3734C7.94444 16.3734 7.94444 16.5018 6.98856 16.5018C6.03268 16.5018 6.03268 16.3734 5.0768 16.3734C4.43954 16.3734 3.82353 16.2663 3.29248 15.9453C2.76144 15.6243 2.31536 15.1748 1.99673 14.6183C1.69935 14.1046 1.5719 13.4839 1.5719 12.8205C1.5719 11.8573 1.50817 11.8573 1.50817 10.8942C1.50817 9.93103 1.55065 9.93103 1.55065 8.9679C1.55065 8.00476 1.5719 8.00476 1.5719 7.04162C1.5719 6.07848 1.48693 6.07848 1.48693 5.11534C1.48693 4.47325 1.80556 3.91677 2.10294 3.38169C2.42157 2.84661 2.7402 2.29013 3.27124 1.96908C3.78105 1.66944 4.4183 1.49822 5.0768 1.49822C6.03268 1.49822 6.03268 1.51962 6.98856 1.51962C7.94444 1.51962 7.94444 1.60523 8.90033 1.60523C9.85621 1.60523 9.85621 1.47681 10.8121 1.47681C11.768 1.47681 11.768 1.58383 12.7239 1.58383C13.3611 1.58383 14.0196 1.64804 14.5294 1.94768C15.0605 2.26873 15.4216 2.82521 15.719 3.36029C16.0163 3.87396 16.25 4.45184 16.25 5.11534C16.25 6.07848 16.3137 6.07848 16.3137 7.04162C16.3137 8.00476 16.2925 8.00476 16.2925 8.9679C16.2925 9.93103 16.3562 9.93103 16.3562 10.8942C16.3562 11.8573 16.2288 11.8573 16.2288 12.8205ZM12.7239 0.149822C11.768 0.149822 11.768 0.171225 10.8121 0.171225C9.85621 0.171225 9.85621 0 8.90033 0C7.94444 0 7.94444 0.149822 6.98856 0.149822C6.03268 0.149822 6.03268 0.107015 5.0768 0.107015C4.39706 0.107015 3.73856 0.171225 3.14379 0.428062C2.52778 0.684899 2.06046 1.15577 1.59314 1.62663C1.12582 2.0761 0.637255 2.54697 0.382353 3.16766C0.127451 3.76694 0.0637255 4.43044 0.0637255 5.11534C0.0637255 6.07848 0.0637255 6.07848 0.0637255 7.04162C0.0637255 8.00476 0 8.00476 0 8.9679C0 9.93103 0.0637255 9.93103 0.0637255 10.8942C0.0637255 11.8573 0.0212418 11.8573 0.0212418 12.8205C0.0212418 13.5054 0.148693 14.1688 0.382353 14.7681C0.637255 15.3888 1.08333 15.9025 1.55065 16.3734C2.01797 16.8442 2.48529 17.3579 3.10131 17.6147C3.69608 17.8716 4.39706 17.8502 5.0768 17.8502C6.03268 17.8502 6.03268 17.8716 6.98856 17.8716C7.94444 17.8716 7.94444 17.893 8.90033 17.893C9.85621 17.893 9.85621 17.9786 10.8121 17.9786C11.768 17.9786 11.768 17.8502 12.7239 17.8502C13.4036 17.8502 14.0833 17.8288 14.6781 17.5719C15.2941 17.3151 15.7614 16.8442 16.2288 16.3734C16.6961 15.9025 17.1846 15.4316 17.4395 14.8109C17.6944 14.2117 17.7582 13.5268 17.7582 12.8419C17.7582 11.8787 17.6944 11.8787 17.6944 10.9156C17.6944 9.95244 17.7157 9.95244 17.7157 8.9893C17.7157 8.02616 17.652 8.02616 17.652 7.06302C17.652 6.09988 17.7369 6.09988 17.7369 5.13674C17.7369 4.45184 17.6307 3.78835 17.3758 3.18906C17.1422 2.54697 16.781 1.96908 16.3137 1.49822C15.8464 1.02735 15.2091 0.791914 14.5931 0.535077C13.9984 0.299643 13.4036 0.149822 12.7239 0.149822Z" fill="#C37530"/>
<path d="M8.90049 12.0713C8.3482 12.0713 7.83839 11.8573 7.39232 11.6004C6.925 11.3436 6.5214 10.9583 6.2665 10.5089C6.0116 10.0594 5.96911 9.52431 5.96911 8.96783C5.96911 8.41135 6.03284 7.89768 6.28774 7.44821C6.54264 6.97735 6.925 6.59209 7.39232 6.33525C7.83839 6.07842 8.3482 5.95 8.90049 5.95C9.45277 5.95 9.96258 6.09982 10.4087 6.35666C10.876 6.61349 11.3433 6.93454 11.6194 7.40541C11.8743 7.85487 11.8956 8.43276 11.8956 8.98924C11.8956 9.54572 11.6832 9.99518 11.4283 10.4446C11.1734 10.9155 10.8547 11.2794 10.3874 11.5576C9.94134 11.8144 9.45277 12.0713 8.90049 12.0713ZM8.90049 4.45178C8.28447 4.45178 7.6897 4.51599 7.15866 4.75143C6.60637 4.98686 6.11781 5.35071 5.71421 5.77877C5.28938 6.20684 4.86454 6.6563 4.63088 7.21278C4.41846 7.74786 4.37598 8.36855 4.37598 8.98924C4.37598 9.60993 4.50343 10.2092 4.71585 10.7443C4.94951 11.3008 5.26813 11.8144 5.69297 12.2425C6.11781 12.6706 6.60637 13.013 7.1799 13.227C7.71094 13.4411 8.30572 13.4411 8.92173 13.4411C9.53774 13.4411 10.1325 13.4625 10.6636 13.227C11.2158 12.9916 11.7894 12.7134 12.2142 12.2853C12.639 11.8573 12.9577 11.3008 13.1913 10.7443C13.4038 10.2092 13.51 9.58852 13.51 8.96783C13.51 8.34714 13.3825 7.74786 13.1701 7.21278C12.9364 6.6563 12.4904 6.24964 12.0655 5.82158C11.6407 5.39352 11.2583 4.92265 10.706 4.70862C10.1113 4.49459 9.5165 4.45178 8.90049 4.45178Z" fill="#C37530"/>
</svg>
