<svg width="16" height="20" viewBox="0 0 16 20" fill="none" xmlns="http://www.w3.org/2000/svg">
<g clip-path="url(#clip0)">
<path d="M8.06088 0C7.45205 0 6.86758 0 6.2831 0.120482C5.69863 0.26506 5.13851 0.457831 4.60274 0.698795C4.06697 0.963855 3.55556 1.25301 3.09285 1.63855C2.60578 2 2.09437 2.36145 1.70472 2.81928C1.33942 3.27711 1.04718 3.83133 0.7793 4.36145C0.511416 4.89157 0.487062 5.49398 0.365297 6.09639C0.243531 6.6506 0 7.22892 0 7.83133C0 8.36145 0.194825 8.93976 0.414003 9.56627C0.584475 10.0964 0.7793 10.6506 1.04718 11.2048C1.31507 11.7108 1.70472 12.1687 2.04566 12.6747C2.36225 13.1807 2.50837 13.7831 2.84932 14.2651C3.19026 14.747 3.70167 15.1325 4.06697 15.5904C4.43227 16.0723 4.74886 16.6024 5.0898 17.0361C5.50381 17.5181 5.94216 17.9277 6.30746 18.3373C6.77017 18.8675 7.13546 19.3494 7.45205 19.6867C7.793 20.0723 8.35312 20.0723 8.71842 19.6867C9.03501 19.3494 9.47336 18.9157 9.93607 18.3855C10.3014 17.9759 10.6423 17.494 11.0563 16.988C11.4216 16.5542 11.9087 16.1687 12.274 15.6867C12.6393 15.2289 13.0046 14.747 13.3455 14.2651C13.6865 13.7831 13.9787 13.253 14.2709 12.747C14.5875 12.2169 14.7336 11.6386 15.0015 11.1084C15.2938 10.5542 15.5129 10.0241 15.6834 9.49398C15.8782 8.86747 16.0244 8.33735 16.0244 7.80723C16.0244 7.20482 15.9269 6.62651 15.7808 6.07229C15.6347 5.49398 15.586 4.89157 15.3181 4.36145C15.0502 3.83133 14.6362 3.39759 14.2709 2.93976C13.8813 2.48193 13.6134 1.90361 13.1507 1.51807C12.688 1.15663 12.0791 0.987952 11.519 0.722892C10.9833 0.457831 10.4231 0.26506 9.83866 0.144578C9.25419 0.0240964 8.69406 0 8.06088 0ZM8.84018 16.8675C8.49924 17.2771 7.71994 17.2289 7.379 16.8193C6.98935 16.3855 6.62405 15.9277 6.25875 15.4458C5.89346 14.988 5.52816 14.506 5.18721 14.0482C4.82192 13.5663 4.57839 13.012 4.2618 12.5301C3.92085 12.0241 3.55556 11.5422 3.28767 11.0602C2.97108 10.506 2.53272 10.0482 2.3379 9.56627C2.07002 8.91566 2.07002 8.28916 2.07002 7.80723C2.07002 7.15663 2.09437 6.53012 2.28919 5.92771C2.48402 5.3253 2.82496 4.77108 3.19026 4.26506C3.55556 3.75904 3.94521 3.20482 4.45662 2.84337C4.96804 2.48193 5.62557 2.36145 6.2344 2.16867C6.81887 1.9759 7.4277 1.68675 8.08524 1.68675C8.74277 1.68675 9.37595 1.87952 9.96043 2.07229C10.5693 2.26506 11.2024 2.50602 11.6895 2.86747C12.2009 3.22892 12.6393 3.73494 13.0046 4.24096C13.3699 4.74699 13.6621 5.3253 13.8569 5.92771C14.0518 6.50602 14.1248 7.13253 14.1248 7.78313C14.1248 8.24096 14.0274 8.84337 13.7352 9.49398C13.5403 9.9759 13.1263 10.4578 12.8097 11.012C12.5419 11.494 12.2009 11.9759 11.86 12.4819C11.5434 12.9639 11.2511 13.4699 10.8858 13.9518C10.5449 14.4337 10.3014 14.988 9.93607 15.4699C9.59513 15.9759 9.20548 16.4337 8.84018 16.8675Z" fill="#C37530"/>
<path d="M8.06088 0C7.45205 0 6.86758 0 6.2831 0.120482C5.69863 0.26506 5.13851 0.457831 4.60274 0.698795C4.06697 0.963855 3.55556 1.25301 3.09285 1.63855C2.60578 2 2.09437 2.36145 1.70472 2.81928C1.33942 3.27711 1.04718 3.83133 0.7793 4.36145C0.511416 4.89157 0.487062 5.49398 0.365297 6.09639C0.243531 6.6506 0 7.22892 0 7.83133C0 8.36145 0.194825 8.93976 0.414003 9.56627C0.584475 10.0964 0.7793 10.6506 1.04718 11.2048C1.31507 11.7108 1.70472 12.1687 2.04566 12.6747C2.36225 13.1807 2.50837 13.7831 2.84932 14.2651C3.19026 14.747 3.70167 15.1325 4.06697 15.5904C4.43227 16.0723 4.74886 16.6024 5.0898 17.0361C5.50381 17.5181 5.94216 17.9277 6.30746 18.3373C6.77017 18.8675 7.13546 19.3494 7.45205 19.6867C7.793 20.0723 8.35312 20.0723 8.71842 19.6867C9.03501 19.3494 9.47336 18.9157 9.93607 18.3855C10.3014 17.9759 10.6423 17.494 11.0563 16.988C11.4216 16.5542 11.9087 16.1687 12.274 15.6867C12.6393 15.2289 13.0046 14.747 13.3455 14.2651C13.6865 13.7831 13.9787 13.253 14.2709 12.747C14.5875 12.2169 14.7336 11.6386 15.0015 11.1084C15.2938 10.5542 15.5129 10.0241 15.6834 9.49398C15.8782 8.86747 16.0244 8.33735 16.0244 7.80723C16.0244 7.20482 15.9269 6.62651 15.7808 6.07229C15.6347 5.49398 15.586 4.89157 15.3181 4.36145C15.0502 3.83133 14.6362 3.39759 14.2709 2.93976C13.8813 2.48193 13.6134 1.90361 13.1507 1.51807C12.688 1.15663 12.0791 0.987952 11.519 0.722892C10.9833 0.457831 10.4231 0.26506 9.83866 0.144578C9.25419 0.0240964 8.69406 0 8.06088 0ZM8.84018 16.8675C8.49924 17.2771 7.71994 17.2289 7.379 16.8193C6.98935 16.3855 6.62405 15.9277 6.25875 15.4458C5.89346 14.988 5.52816 14.506 5.18721 14.0482C4.82192 13.5663 4.57839 13.012 4.2618 12.5301C3.92085 12.0241 3.55556 11.5422 3.28767 11.0602C2.97108 10.506 2.53272 10.0482 2.3379 9.56627C2.07002 8.91566 2.07002 8.28916 2.07002 7.80723C2.07002 7.15663 2.09437 6.53012 2.28919 5.92771C2.48402 5.3253 2.82496 4.77108 3.19026 4.26506C3.55556 3.75904 3.94521 3.20482 4.45662 2.84337C4.96804 2.48193 5.62557 2.36145 6.2344 2.16867C6.81887 1.9759 7.4277 1.68675 8.08524 1.68675C8.74277 1.68675 9.37595 1.87952 9.96043 2.07229C10.5693 2.26506 11.2024 2.50602 11.6895 2.86747C12.2009 3.22892 12.6393 3.73494 13.0046 4.24096C13.3699 4.74699 13.6621 5.3253 13.8569 5.92771C14.0518 6.50602 14.1248 7.13253 14.1248 7.78313C14.1248 8.24096 14.0274 8.84337 13.7352 9.49398C13.5403 9.9759 13.1263 10.4578 12.8097 11.012C12.5419 11.494 12.2009 11.9759 11.86 12.4819C11.5434 12.9639 11.2511 13.4699 10.8858 13.9518C10.5449 14.4337 10.3014 14.988 9.93607 15.4699C9.59513 15.9759 9.20548 16.4337 8.84018 16.8675Z" fill="#C37530"/>
<path d="M10.6425 7.7111C10.6425 6.98821 10.3502 6.3858 9.88753 5.92797C9.40047 5.44604 8.81599 5.20508 8.0854 5.20508C7.3548 5.20508 6.69727 5.37375 6.21021 5.85568C5.72315 6.33761 5.52832 6.98821 5.52832 7.7111C5.52832 8.43399 5.67444 9.13279 6.1615 9.61472C6.64856 10.0966 7.3548 10.2653 8.0854 10.2653C8.81599 10.2653 9.47353 10.0244 9.93623 9.54243C10.3989 9.0605 10.6425 8.43399 10.6425 7.7111Z" fill="#C37530"/>
<path d="M10.6425 7.7111C10.6425 6.98821 10.3502 6.3858 9.88753 5.92797C9.40047 5.44604 8.81599 5.20508 8.0854 5.20508C7.3548 5.20508 6.69727 5.37375 6.21021 5.85568C5.72315 6.33761 5.52832 6.98821 5.52832 7.7111C5.52832 8.43399 5.67444 9.13279 6.1615 9.61472C6.64856 10.0966 7.3548 10.2653 8.0854 10.2653C8.81599 10.2653 9.47353 10.0244 9.93623 9.54243C10.3989 9.0605 10.6425 8.43399 10.6425 7.7111Z" fill="#C37530"/>
<path d="M8.06088 0C7.45205 0 6.86758 0 6.2831 0.120482C5.69863 0.26506 5.13851 0.457831 4.60274 0.698795C4.06697 0.963855 3.55556 1.25301 3.09285 1.63855C2.60578 2 2.09437 2.36145 1.70472 2.81928C1.33942 3.27711 1.04718 3.83133 0.7793 4.36145C0.511416 4.89157 0.487062 5.49398 0.365297 6.09639C0.243531 6.6506 0 7.22892 0 7.83133C0 8.36145 0.194825 8.93976 0.414003 9.56627C0.584475 10.0964 0.7793 10.6506 1.04718 11.2048C1.31507 11.7108 1.70472 12.1687 2.04566 12.6747C2.36225 13.1807 2.50837 13.7831 2.84932 14.2651C3.19026 14.747 3.70167 15.1325 4.06697 15.5904C4.43227 16.0723 4.74886 16.6024 5.0898 17.0361C5.50381 17.5181 5.94216 17.9277 6.30746 18.3373C6.77017 18.8675 7.13546 19.3494 7.45205 19.6867C7.793 20.0723 8.35312 20.0723 8.71842 19.6867C9.03501 19.3494 9.47336 18.9157 9.93607 18.3855C10.3014 17.9759 10.6423 17.494 11.0563 16.988C11.4216 16.5542 11.9087 16.1687 12.274 15.6867C12.6393 15.2289 13.0046 14.747 13.3455 14.2651C13.6865 13.7831 13.9787 13.253 14.2709 12.747C14.5875 12.2169 14.7336 11.6386 15.0015 11.1084C15.2938 10.5542 15.5129 10.0241 15.6834 9.49398C15.8782 8.86747 16.0244 8.33735 16.0244 7.80723C16.0244 7.20482 15.9269 6.62651 15.7808 6.07229C15.6347 5.49398 15.586 4.89157 15.3181 4.36145C15.0502 3.83133 14.6362 3.39759 14.2709 2.93976C13.8813 2.48193 13.6134 1.90361 13.1507 1.51807C12.688 1.15663 12.0791 0.987952 11.519 0.722892C10.9833 0.457831 10.4231 0.26506 9.83866 0.144578C9.25419 0.0240964 8.69406 0 8.06088 0ZM8.84018 16.8675C8.49924 17.2771 7.71994 17.2289 7.379 16.8193C6.98935 16.3855 6.62405 15.9277 6.25875 15.4458C5.89346 14.988 5.52816 14.506 5.18721 14.0482C4.82192 13.5663 4.57839 13.012 4.2618 12.5301C3.92085 12.0241 3.55556 11.5422 3.28767 11.0602C2.97108 10.506 2.53272 10.0482 2.3379 9.56627C2.07002 8.91566 2.07002 8.28916 2.07002 7.80723C2.07002 7.15663 2.09437 6.53012 2.28919 5.92771C2.48402 5.3253 2.82496 4.77108 3.19026 4.26506C3.55556 3.75904 3.94521 3.20482 4.45662 2.84337C4.96804 2.48193 5.62557 2.36145 6.2344 2.16867C6.81887 1.9759 7.4277 1.68675 8.08524 1.68675C8.74277 1.68675 9.37595 1.87952 9.96043 2.07229C10.5693 2.26506 11.2024 2.50602 11.6895 2.86747C12.2009 3.22892 12.6393 3.73494 13.0046 4.24096C13.3699 4.74699 13.6621 5.3253 13.8569 5.92771C14.0518 6.50602 14.1248 7.13253 14.1248 7.78313C14.1248 8.24096 14.0274 8.84337 13.7352 9.49398C13.5403 9.9759 13.1263 10.4578 12.8097 11.012C12.5419 11.494 12.2009 11.9759 11.86 12.4819C11.5434 12.9639 11.2511 13.4699 10.8858 13.9518C10.5449 14.4337 10.3014 14.988 9.93607 15.4699C9.59513 15.9759 9.20548 16.4337 8.84018 16.8675Z" fill="#C37530"/>
<path d="M10.6425 7.7111C10.6425 6.98821 10.3502 6.3858 9.88753 5.92797C9.40047 5.44604 8.81599 5.20508 8.0854 5.20508C7.3548 5.20508 6.69727 5.37375 6.21021 5.85568C5.72315 6.33761 5.52832 6.98821 5.52832 7.7111C5.52832 8.43399 5.67444 9.13279 6.1615 9.61472C6.64856 10.0966 7.3548 10.2653 8.0854 10.2653C8.81599 10.2653 9.47353 10.0244 9.93623 9.54243C10.3989 9.0605 10.6425 8.43399 10.6425 7.7111Z" fill="#C37530"/>
</g>
<defs>
<clipPath id="clip0">
<rect width="16" height="20" fill="white"/>
</clipPath>
</defs>
</svg>
