<svg width="22" height="18" viewBox="0 0 22 18" fill="none" xmlns="http://www.w3.org/2000/svg">
<path d="M18.6716 0.0916821C17.8037 0.0916821 17.8037 0.139132 16.9358 0.139132C16.0679 0.139132 16.0679 0.115407 15.2 0.115407C14.3321 0.115407 14.3321 0.0205078 13.4642 0.0205078C12.5963 0.0205078 12.5963 0.139132 11.7284 0.139132C10.8605 0.139132 10.8605 0.186581 9.99259 0.186581C9.12469 0.186581 9.12469 0.0916821 8.25679 0.0916821C7.38889 0.0916821 7.38889 0.139132 6.52099 0.139132C5.62963 0.0916822 5.62963 0.186581 4.76173 0.186581C3.89383 0.186581 3.89383 0.139132 3.02593 0.139132C2.50988 0.139132 1.94691 0.139132 1.52469 0.400104C1.07901 0.661077 0.703704 1.08812 0.445679 1.51517C0.211111 1.94222 0.258025 2.48789 0.258025 3.03356C0.258025 3.88765 0.0938272 3.88765 0.0938272 4.71802C0.0938272 5.57211 0.117284 5.57211 0.117284 6.40248C0.117284 7.25657 0.0469136 7.25657 0.0469136 8.08694C0.0469136 8.96475 0 8.96475 0 9.79512C0 10.6492 0.0469136 10.6492 0.0469136 11.5033C0.0469136 12.3574 0 12.3574 0 13.2115C0 14.0656 0.0234568 14.0656 0.0234568 14.9197C0.0234568 15.4416 0.304938 15.9161 0.562963 16.3432C0.820988 16.7939 1.05556 17.2922 1.50123 17.5531C1.92346 17.8141 2.46296 17.8141 3.00247 17.8141C3.87037 17.8141 3.87037 17.7429 4.73827 17.7429C5.60617 17.7429 5.60617 17.8615 6.47407 17.8615C7.34198 17.8615 7.34198 17.909 8.20988 17.909C9.07778 17.909 9.07778 17.8615 9.94568 17.8615C10.8136 17.8615 10.8136 17.7429 11.6815 17.7429C12.5494 17.7429 12.5494 17.8853 13.4173 17.8853C14.2852 17.8853 14.2852 17.8615 15.1531 17.8615C16.021 17.8615 16.021 17.7904 16.8889 17.7904C17.7568 17.7904 17.7568 17.8853 18.6247 17.8853C19.1407 17.8853 19.6802 17.7904 20.1259 17.5294C20.5716 17.2684 20.8531 16.7939 21.1111 16.3669C21.3691 15.9398 21.6037 15.4653 21.6037 14.9197C21.6037 14.0656 21.6272 14.0656 21.6272 13.2352C21.6272 12.3811 21.5099 12.3811 21.5099 11.5508C21.5099 10.6967 21.6506 10.6967 21.6506 9.8663C21.6506 9.0122 21.416 9.0122 21.416 8.18184C21.416 7.32774 21.5333 7.32774 21.5333 6.47365C21.5333 5.61956 21.4395 5.61956 21.4395 4.76547C21.4395 3.91137 21.5099 3.91137 21.5099 3.05728C21.5099 2.53534 21.3457 2.06084 21.1111 1.63379C20.8531 1.18302 20.5716 0.732251 20.1494 0.471279C19.7272 0.186581 19.1877 0.0916821 18.6716 0.0916821ZM17.6864 1.98967C17.9679 1.98967 18.1321 2.34554 17.9444 2.53534C17.358 3.15218 17.3346 3.12846 16.7481 3.76902C16.1617 4.38587 16.0914 4.31469 15.4815 4.93154C14.8951 5.54838 14.9654 5.64328 14.379 6.26013C13.7926 6.87697 13.816 6.92442 13.2296 7.54127C12.6432 8.15811 12.5728 8.11066 11.9864 8.72751C11.6815 9.03593 11.3062 9.24945 10.8605 9.24945C10.4148 9.24945 9.94568 9.13083 9.64074 8.82241C9.05432 8.20556 9.07778 8.15811 8.49136 7.54127C7.90494 6.92442 8.02222 6.8058 7.41235 6.18895C6.82593 5.57211 6.80247 5.57211 6.21605 4.95526C5.62963 4.33842 5.46543 4.48077 4.87901 3.86392C4.29259 3.24708 4.40988 3.12846 3.8 2.51161C3.61235 2.32181 3.72963 2.01339 3.98765 2.01339C4.8321 2.01339 4.8321 2.08456 5.7 2.08456C6.54444 2.08456 6.54444 2.13201 7.41235 2.13201C8.25679 2.13201 8.25679 2.08456 9.12469 2.08456C9.96914 2.08456 9.96914 2.13201 10.837 2.13201C11.7049 2.13201 11.7049 2.10829 12.5494 2.10829C13.3938 2.10829 13.3938 1.94222 14.2617 1.94222C15.1296 1.94222 15.1296 2.13201 15.9741 2.13201C16.842 2.10829 16.842 1.98967 17.6864 1.98967ZM18.6716 15.9161C17.8037 15.9161 17.8037 15.9636 16.9358 15.9636C16.0679 15.9636 16.0679 15.9398 15.2 15.9398C14.3321 15.9398 14.3321 15.8449 13.4642 15.8449C12.5963 15.8449 12.5963 15.9636 11.7284 15.9636C10.8605 15.9636 10.8605 16.011 9.99259 16.011C9.12469 16.011 9.12469 15.9161 8.25679 15.9161C7.38889 15.9161 7.38889 15.9636 6.52099 15.9636C5.65309 15.9636 5.65309 16.0585 4.78518 16.0585C3.91728 16.0585 3.91728 16.011 3.04938 16.011C2.46296 15.9636 2.11111 15.4653 2.11111 14.896C2.11111 13.9944 2.08765 13.9944 2.11111 13.1166C2.08765 12.215 1.87654 12.215 1.87654 11.3372C1.87654 10.4357 2.04074 10.4357 2.04074 9.55787C2.04074 8.65633 2.01728 8.65633 2.01728 7.77851C2.01728 6.87697 2.08765 6.87697 2.08765 5.99916C2.08765 5.09761 2.13457 5.09761 2.13457 4.2198C2.13457 3.9351 2.29877 3.8402 2.50988 4.05372C3.0963 4.67057 3.04938 4.69429 3.6358 5.31114C4.22222 5.92798 4.24568 5.90426 4.80864 6.5211C5.39506 7.13795 5.51235 7.01932 6.07531 7.63617C6.66173 8.25301 6.52099 8.37163 7.10741 8.98848C7.69383 9.60532 7.78765 9.4867 8.37407 10.1035C8.70247 10.4594 9.12469 10.6492 9.57037 10.839C10.016 11.0288 10.4383 11.2186 10.9309 11.2186C11.4 11.2186 11.8926 11.1474 12.3148 10.9576C12.737 10.7678 13.1123 10.4357 13.4407 10.0798C14.0037 9.4867 13.9333 9.3918 14.4963 8.77496C15.0593 8.18184 15.1765 8.27673 15.7395 7.68361C16.3025 7.0905 16.3025 7.06677 16.8654 6.44993C17.4284 5.85681 17.3815 5.78563 17.9679 5.19251C18.5309 4.59939 18.6012 4.64684 19.1877 4.05372C19.3753 3.8402 19.6099 3.95882 19.6099 4.24352C19.6099 5.14506 19.7506 5.14506 19.7506 6.02288C19.7506 6.92442 19.6333 6.92442 19.6333 7.80224C19.6333 8.70378 19.6099 8.70378 19.6099 9.5816C19.6099 10.4831 19.7272 10.4831 19.7272 11.361C19.7272 12.2625 19.5864 12.2625 19.5864 13.1403C19.5864 14.0419 19.821 14.0419 19.821 14.9197C19.821 15.4653 19.2346 15.9161 18.6716 15.9161Z" fill="#C37530"/>
</svg>
