<svg width="30" height="30" viewBox="0 0 30 30" fill="none" xmlns="http://www.w3.org/2000/svg">
<rect x="1" y="1" width="29" height="28" fill="#C37530"/>
<path d="M19.2308 30H19.0385L15.7692 29.8077C15.3846 29.8077 15 29.8077 14.6154 29.8077H14.0385C13.2692 29.8077 12.5 29.8077 11.7308 29.8077C10.9615 29.6154 10.1923 29.6154 9.42308 29.8077H8.84615C8.46154 29.8077 8.07692 29.8077 7.69231 29.8077H4.23077C3.84615 29.8077 3.26923 29.8077 2.88462 29.8077L1.34615 29.6154C0.961538 29.6154 0.576923 29.2308 0.576923 28.8462V26.9231C0.576923 26.7308 0.576923 26.5385 0.576923 26.1538V25.3846C0.576923 24.4231 0.576923 23.6538 0.576923 22.6923C0.576923 21.9231 0.769231 21.3462 0.576923 20.5769L0 18.0769C0 17.6923 0 17.1154 0 16.7308L0.192308 13.2692C0.192308 12.8846 0.192308 12.6923 0.192308 12.3077V10.9615C0.192308 10.5769 0.192308 10.1923 0.192308 10V6.34615C0.192308 5.96154 0.192308 5.57692 0.192308 5.38461V4.42308C0.192308 3.84615 0.192308 3.07692 0.192308 2.5V1.15385C0.192308 0.769231 0.576923 0.384615 0.961538 0.384615H3.26923H5.19231C5.38462 0.384615 5.76923 0.384615 5.96154 0.384615H7.30769C7.69231 0.384615 8.07692 0.384615 8.46154 0.384615L12.1154 0.576923C12.5 0.576923 12.8846 0.576923 13.2692 0.576923H14.6154C14.8077 0 15.1923 0 15.3846 0H19.2308C19.4231 0 19.6154 0 20 0H21.5385C21.7308 0 22.1154 0 22.3077 0H23.8462C24.0385 0 24.4231 0 24.6154 0H26.1538C26.5385 0 26.7308 0 27.1154 0H29.0385C29.4231 0 29.8077 0.384615 29.8077 0.769231V2.30769C29.8077 2.88462 29.8077 3.65385 29.8077 4.23077C29.6154 5.19231 29.6154 5.96154 29.8077 6.73077C29.8077 7.5 29.8077 8.07692 29.8077 8.84615L29.6154 12.1154C29.6154 12.5 29.6154 12.8846 29.6154 13.2692V14.6154C29.6154 15 29.6154 15.1923 29.6154 15.5769V17.1154C29.6154 17.3077 29.6154 17.6923 29.6154 17.8846V19.0385C29.6154 19.6154 29.6154 20.1923 29.6154 20.5769V21.3462C29.6154 21.7308 29.6154 22.3077 29.6154 22.6923L29.4231 29.0385C29.4231 29.4231 29.0385 29.8077 28.6538 29.8077L26.9231 30C26.5385 30 26.1538 30 25.9615 30H24.6154C24.2308 30 23.8462 30 23.4615 30H22.8846C22.1154 30 21.3462 30 20.5769 30H20.3846C20.1923 30 19.6154 30 19.2308 30ZM15.1923 28.2692C15.3846 28.2692 15.5769 28.2692 15.7692 28.2692L19.0385 28.4615C19.6154 28.4615 20 28.4615 20.5769 28.4615H20.7692C21.7308 28.2692 22.6923 28.2692 23.4615 28.4615H24.0385C24.4231 28.4615 24.8077 28.4615 25 28.4615H26.3462C26.7308 28.4615 26.9231 28.4615 27.3077 28.4615H28.2692L28.4615 22.8846C28.4615 22.5 28.4615 22.1154 28.4615 21.7308V20.9615C28.4615 20.3846 28.4615 19.6154 28.4615 19.0385V17.8846C28.4615 17.6923 28.4615 17.5 28.4615 17.3077V15.7692C28.4615 15.5769 28.4615 15.1923 28.4615 15V13.6538C28.4615 13.2692 28.4615 12.8846 28.4615 12.5L28.6538 9.23077C28.6538 8.65385 28.6538 8.07692 28.6538 7.5C28.4615 6.34615 28.6538 5.57692 28.6538 4.61538V4.42308C28.6538 3.84615 28.6538 3.26923 28.6538 2.88462V2.11538H27.5C27.3077 2.11538 26.9231 2.11538 26.7308 2.11538H25.1923C24.8077 2.11538 24.6154 2.11538 24.2308 2.11538H22.6923C22.5 2.11538 22.1154 2.11538 21.9231 2.11538H20.3846C20.1923 2.11538 19.8077 2.11538 19.6154 2.11538H15.7692C15.5769 2.11538 15.1923 2.11538 15 2.11538H13.6538C12.8846 1.92308 12.5 1.92308 12.1154 1.92308L8.46154 1.73077C8.07692 1.73077 7.88462 1.73077 7.5 1.73077H6.15385C5.76923 1.92308 5.57692 1.92308 5.19231 1.92308H3.26923H1.73077V2.5C1.73077 3.07692 1.73077 3.65385 1.73077 4.23077V5.19231C1.92308 5.38462 1.92308 5.76923 1.92308 6.15385V9.80769C1.92308 10.1923 1.92308 10.3846 1.92308 10.7692V12.1154C1.92308 12.5 1.92308 12.8846 1.92308 13.2692L1.73077 16.7308C1.73077 17.1154 1.73077 17.5 1.73077 17.8846L1.92308 20.9615C1.92308 21.7308 1.92308 22.5 1.92308 23.2692C1.92308 24.0385 1.73077 24.8077 1.92308 25.5769V26.3462C1.92308 26.5385 1.92308 26.9231 1.92308 27.1154V28.2692H2.69231C3.07692 28.2692 3.46154 28.2692 3.84615 28.2692H7.30769C7.69231 28.2692 7.88462 28.2692 8.26923 28.2692H8.84615C9.80769 28.2692 10.5769 28.2692 11.5385 28.2692C12.3077 28.2692 12.8846 28.4615 13.6538 28.2692H14.2308C14.6154 28.2692 14.8077 28.2692 15.1923 28.2692Z" fill="#C37530"/>
<path d="M15.0006 9.42315H14.8083H14.616C14.0391 9.61546 13.4621 9.80777 13.0775 10.1924H12.8852C12.6929 10.1924 12.5006 10.0001 12.5006 9.80777C12.5006 9.61546 12.6929 9.23084 13.0775 8.65392C13.6544 8.077 14.2314 7.69238 15.0006 7.69238C15.5775 7.69238 15.9621 7.69238 16.1544 7.69238C16.3468 7.69238 16.5391 7.88469 16.7314 7.88469C16.7314 7.88469 16.7314 7.88469 16.9237 7.88469C17.3083 8.077 17.6929 8.26931 17.8852 8.46161C18.2698 9.03854 18.4621 9.61546 18.4621 10.1924V10.7693V11.1539C18.4621 11.5385 18.2698 11.9232 18.0775 12.6924C18.0775 13.4616 17.6929 13.8462 17.3083 14.4232C17.116 14.8078 16.7314 15.0001 16.1544 15.577L15.9621 15.7693C15.9621 15.7693 15.9621 15.9616 15.7698 15.9616L15.5775 16.1539C15.5775 16.3462 15.3852 16.5385 15.3852 16.5385C15.0006 17.1155 14.8083 17.3078 14.8083 17.5001L14.616 17.6924C14.616 17.8847 14.4237 18.077 14.2314 18.2693C14.2314 18.4616 14.0391 18.4616 14.0391 18.4616H14.2314C14.2314 18.4616 14.2314 18.4616 14.4237 18.4616C14.4237 18.4616 14.4237 18.4616 14.616 18.4616H15.1929C15.1929 18.4616 15.1929 18.4616 15.3852 18.4616H15.5775C15.5775 18.4616 15.5775 18.4616 15.7698 18.4616C15.7698 18.4616 15.9621 18.4616 16.3468 18.4616H16.5391C16.7314 18.4616 16.9237 18.4616 17.116 18.2693L17.3083 18.077V17.8847C17.3083 17.6924 17.5006 17.6924 17.6929 17.6924C18.0775 17.6924 18.2698 17.8847 18.2698 18.2693C18.2698 18.2693 18.2698 18.4616 18.2698 18.6539V18.8462C18.2698 19.0385 18.2698 19.0385 18.2698 19.0385V19.4232C18.2698 19.4232 18.2698 19.6155 18.2698 19.8078V20.0001C18.0775 20.577 17.8852 20.7693 17.5006 20.7693C17.3083 20.7693 17.116 20.7693 16.9237 20.7693C16.7314 20.7693 16.5391 20.7693 16.3468 20.7693C16.1544 20.7693 16.1544 20.7693 15.9621 20.7693H15.5775C15.3852 20.7693 15.0006 20.7693 14.616 20.7693H14.0391C13.8468 20.7693 13.4621 20.7693 13.0775 20.7693H12.116C11.7314 20.7693 11.5391 20.577 11.5391 20.1924C11.5391 20.0001 11.7314 19.6155 11.9237 19.2308C12.116 19.0385 12.116 18.8462 12.3083 18.6539C12.3083 18.6539 12.3083 18.6539 12.5006 18.4616C12.5006 18.4616 12.5006 18.2693 12.6929 18.2693C12.6929 18.2693 12.6929 18.2693 12.8852 18.077C13.0775 17.8847 12.8852 17.8847 13.0775 17.8847C13.0775 17.8847 13.2698 17.6924 13.4621 17.3078C13.6544 16.9232 13.8468 16.7308 14.0391 16.5385L14.8083 15.3847L15.0006 15.0001C15.1929 14.8078 15.3852 14.4232 15.5775 14.4232C16.1544 13.2693 16.5391 12.3078 16.5391 11.5385C16.5391 11.3462 16.5391 11.1539 16.3468 10.7693C16.3468 10.577 16.3468 10.3847 16.3468 10.3847C16.3468 10.3847 16.3468 10.1924 16.1544 10.1924C15.5775 9.61546 15.1929 9.42315 15.0006 9.42315Z" fill="white"/>
</svg>
