<svg width="20" height="20" viewBox="0 0 20 20" fill="none" xmlns="http://www.w3.org/2000/svg">
<path d="M17.6437 13.7366C16.9635 13.6654 16.94 13.7129 16.2598 13.6417C15.5795 13.5705 15.5561 13.618 14.8758 13.5231C14.219 13.4519 13.6561 13.6417 13.1869 14.1162C12.6943 14.6144 12.5536 14.4958 12.061 14.994C11.5684 15.4922 11.7326 15.7058 11.0993 16.0142C10.5832 15.7532 10.161 15.4211 9.66842 15.1126C9.19928 14.8042 8.68323 14.5195 8.23755 14.1636C7.79187 13.8078 7.44002 13.3333 7.04125 12.93C6.64249 12.5266 6.26718 12.0996 5.89187 11.6488C5.54002 11.198 5.14125 10.7947 4.83632 10.2965C4.53138 9.82201 4.20298 9.32378 3.94496 8.80184C4.2499 8.16127 4.50792 8.35107 5.02397 7.85285C5.54002 7.35463 5.39928 7.21228 5.91533 6.71406C6.38446 6.23956 6.73632 5.64644 6.66595 4.98215C6.59558 4.29413 6.66595 4.2704 6.59557 3.58239C6.5252 2.89437 6.31409 2.91809 6.22026 2.23007C6.14989 1.6844 6.03261 1.09128 5.6573 0.759135C5.28199 0.403264 4.69557 0.166016 4.13261 0.166016C3.19434 0.166016 3.19434 0.403264 2.25607 0.403264C1.64619 0.403264 1.10668 0.569337 0.707918 0.972659C0.309152 1.37598 -0.0426996 1.94538 0.00421399 2.56222C0.0276708 3.13161 0.191871 3.67728 0.285698 4.22295C0.379526 4.79235 0.426441 5.33802 0.543725 5.88369C0.684465 6.42936 0.77829 6.99876 0.965944 7.5207C1.1536 8.04265 1.482 8.54087 1.71656 9.03909C1.95113 9.56103 2.13879 10.083 2.39681 10.5812C2.67829 11.0794 2.93632 11.5776 3.26471 12.0284C3.59311 12.5029 4.0857 12.8113 4.43755 13.2384C4.78941 13.6654 5.09434 14.1399 5.49311 14.5432C5.89188 14.9466 6.36101 15.2313 6.78323 15.6109C7.20546 15.9667 7.62767 16.3226 8.09681 16.631C8.54249 16.9394 8.89434 17.4377 9.38693 17.7224C9.87952 18.0071 10.4659 18.0308 10.982 18.268C11.498 18.5053 11.9672 18.79 12.5067 18.9561C13.0227 19.1458 13.5622 19.3119 14.1017 19.4543C14.6413 19.5966 15.1808 19.6678 15.7437 19.739C16.2832 19.8339 16.8462 19.905 17.3857 19.9288C17.9956 19.9762 18.5351 19.7152 18.9338 19.3119C19.3326 18.9086 19.5906 18.3867 19.5906 17.7698C19.5906 16.8208 19.4968 16.8208 19.5203 15.8718C19.5203 15.3262 19.3795 14.8517 19.0511 14.4721C18.6055 14.1399 18.2067 13.784 17.6437 13.7366Z" fill="#C37530"/>
</svg>
